# xmcd
#
# Track frame offsets:
#	150
#	12037
#	30680
#	43575
#	59955
#	70630
#	98775
#	112722
#	117085
#	130765
#	157437
#	172732
#	188942
#	205592
#	222160
#	232622
#	245270
#	250727
#	259970
#	280110
#	291215
#
# Disc length: 4012 seconds
#
# Revision: 2
# Processed by: cddbd v1.4PL0 Copyright (c) Steve Scherf et al.
# Submitted via: EasyCDDAExtractor 4.5.0.2
#
DISCID=210faa15
DTITLE=Dry Branch Fire Squad - Live! At Last
DYEAR=1996
DGENRE=Bluegrass
TTITLE0=Late Last Night
TTITLE1=True Historia
TTITLE2=Aragon Mill
TTITLE3=Economical Talk
TTITLE4=John Henry
TTITLE5=A Pitiful Thing 
TTITLE6=The Cowboy Song
TTITLE7=Housework is My Life
TTITLE8=Red Rocking Chair
TTITLE9=Cultural Exchange
TTITLE10=Someone Play Dixie For Me
TTITLE11=Hambone - Balo's Song
TTITLE12=Testosterone Poisoning
TTITLE13=Midnight on the Stormy Deep
TTITLE14=Banjo Jokes
TTITLE15=Blue Grass Breakdown
TTITLE16=Band introductions
TTITLE17=World's Greatest Folksinger
TTITLE18=Hard Times
TTITLE19=Goin' Up on the Mountain
TTITLE20=Walk the Streets of Glory
EXTD=
EXTT0=
EXTT1=
EXTT2=
EXTT3=
EXTT4=
EXTT5=
EXTT6=
EXTT7=
EXTT8=
EXTT9=
EXTT10=
EXTT11=
EXTT12=
EXTT13=
EXTT14=
EXTT15=
EXTT16=
EXTT17=
EXTT18=
EXTT19=
EXTT20=
PLAYORDER=
